<svg xmlns="http://www.w3.org/2000/svg" width="100%" viewBox="0 0 1180 330" role="img" aria-labelledby="arcade-fallback-light-title arcade-fallback-light-desc">
  <title id="arcade-fallback-light-title">Laouën Bernard — live digital profile</title>
  <desc id="arcade-fallback-light-desc">Animated bilingual command-center profile for Laouën Bernard.</desc>
  <defs>
    <linearGradient id="accent" x1="0" y1="0" x2="1" y2="1"><stop stop-color="#087EA4"/><stop offset=".52" stop-color="#6D42D8"/><stop offset="1" stop-color="#07866F"/></linearGradient>
    <filter id="softGlow" x="-70%" y="-70%" width="240%" height="240%"><feGaussianBlur stdDeviation="5" result="blur"/><feMerge><feMergeNode in="blur"/><feMergeNode in="SourceGraphic"/></feMerge></filter>
  </defs>
  <style>.hero-static { display: none; } @media (prefers-reduced-motion: reduce) { .hero-animated { display: none; } .hero-static { display: inline; } }</style>
  <g class="hero-animated">
<!-- hero-animated:start -->
<rect width="1180" height="330" rx="28" fill="#F7F9FC"/>
<circle cx="120" cy="-20" r="230" fill="url(#accent)" opacity=".08"/>
<rect x="14" y="14" width="1152" height="302" rx="22" fill="#FFFFFF" stroke="#D7DFEC"/>
<rect x="14" y="14" width="1152" height="58" rx="22" fill="#F7F9FC"/>
<path d="M38 72H1142" stroke="#D7DFEC"/>
<circle cx="43" cy="43" r="5" fill="#C76A20"/><circle cx="61" cy="43" r="5" fill="#6D42D8"/><circle cx="79" cy="43" r="5" fill="#07866F"/>
<text x="104" y="47" fill="#111827" font-family="ui-sans-serif, system-ui, sans-serif" font-size="18" font-weight="800">Contribution Arcade / Le serpent de Laouën</text>
<rect x="910" y="29" width="215" height="28" rx="9" fill="#07866F" fill-opacity=".08" stroke="#07866F" stroke-opacity=".55"/>
<circle cx="926" cy="43" r="3" fill="#07866F" filter="url(#softGlow)"/>
<text x="937" y="47" fill="#07866F" font-family="ui-monospace, SFMono-Regular, Menlo, Consolas, monospace" font-size="10" font-weight="700">FALLBACK READY</text>
<g id="contribution-grid"><rect x="52" y="99" width="18" height="16" rx="3" fill="#07866F" fill-opacity="0.08"/><rect x="79" y="99" width="18" height="16" rx="3" fill="#07866F" fill-opacity="0.34"/><rect x="106" y="99" width="18" height="16" rx="3" fill="#07866F" fill-opacity="0.22"/><rect x="133" y="99" width="18" height="16" rx="3" fill="#07866F" fill-opacity="0.14"/><rect x="160" y="99" width="18" height="16" rx="3" fill="#07866F" fill-opacity="0.08"/><rect x="187" y="99" width="18" height="16" rx="3" fill="#07866F" fill-opacity="0.34"/><rect x="214" y="99" width="18" height="16" rx="3" fill="#07866F" fill-opacity="0.22"/><rect x="241" y="99" width="18" height="16" rx="3" fill="#07866F" fill-opacity="0.14"/><rect x="268" y="99" width="18" height="16" rx="3" fill="#07866F" fill-opacity="0.08"/><rect x="295" y="99" width="18" height="16" rx="3" fill="#07866F" fill-opacity="0.34"/><rect x="322" y="99" width="18" height="16" rx="3" fill="#07866F" fill-opacity="0.22"/><rect x="349" y="99" width="18" height="16" rx="3" fill="#07866F" fill-opacity="0.14"/><rect x="376" y="99" width="18" height="16" rx="3" fill="#07866F" fill-opacity="0.08"/><rect x="403" y="99" width="18" height="16" rx="3" fill="#07866F" fill-opacity="0.34"/><rect x="430" y="99" width="18" height="16" rx="3" fill="#07866F" fill-opacity="0.22"/><rect x="457" y="99" width="18" height="16" rx="3" fill="#07866F" fill-opacity="0.14"/><rect x="484" y="99" width="18" height="16" rx="3" fill="#07866F" fill-opacity="0.08"/><rect x="511" y="99" width="18" height="16" rx="3" fill="#07866F" fill-opacity="0.34"/><rect x="538" y="99" width="18" height="16" rx="3" fill="#07866F" fill-opacity="0.22"/><rect x="565" y="99" width="18" height="16" rx="3" fill="#07866F" fill-opacity="0.14"/><rect x="52" y="123" width="18" height="16" rx="3" fill="#07866F" fill-opacity="0.14"/><rect x="79" y="123" width="18" height="16" rx="3" fill="#07866F" fill-opacity="0.08"/><rect x="106" y="123" width="18" height="16" rx="3" fill="#07866F" fill-opacity="0.34"/><rect x="133" y="123" width="18" height="16" rx="3" fill="#07866F" fill-opacity="0.22"/><rect x="160" y="123" width="18" height="16" rx="3" fill="#07866F" fill-opacity="0.14"/><rect x="187" y="123" width="18" height="16" rx="3" fill="#07866F" fill-opacity="0.08"/><rect x="214" y="123" width="18" height="16" rx="3" fill="#07866F" fill-opacity="0.34"/><rect x="241" y="123" width="18" height="16" rx="3" fill="#07866F" fill-opacity="0.22"/><rect x="268" y="123" width="18" height="16" rx="3" fill="#07866F" fill-opacity="0.14"/><rect x="295" y="123" width="18" height="16" rx="3" fill="#07866F" fill-opacity="0.08"/><rect x="322" y="123" width="18" height="16" rx="3" fill="#07866F" fill-opacity="0.34"/><rect x="349" y="123" width="18" height="16" rx="3" fill="#07866F" fill-opacity="0.22"/><rect x="376" y="123" width="18" height="16" rx="3" fill="#07866F" fill-opacity="0.14"/><rect x="403" y="123" width="18" height="16" rx="3" fill="#07866F" fill-opacity="0.08"/><rect x="430" y="123" width="18" height="16" rx="3" fill="#07866F" fill-opacity="0.34"/><rect x="457" y="123" width="18" height="16" rx="3" fill="#07866F" fill-opacity="0.22"/><rect x="484" y="123" width="18" height="16" rx="3" fill="#07866F" fill-opacity="0.14"/><rect x="511" y="123" width="18" height="16" rx="3" fill="#07866F" fill-opacity="0.08"/><rect x="538" y="123" width="18" height="16" rx="3" fill="#07866F" fill-opacity="0.34"/><rect x="565" y="123" width="18" height="16" rx="3" fill="#07866F" fill-opacity="0.22"/><rect x="52" y="147" width="18" height="16" rx="3" fill="#07866F" fill-opacity="0.22"/><rect x="79" y="147" width="18" height="16" rx="3" fill="#07866F" fill-opacity="0.14"/><rect x="106" y="147" width="18" height="16" rx="3" fill="#07866F" fill-opacity="0.08"/><rect x="133" y="147" width="18" height="16" rx="3" fill="#07866F" fill-opacity="0.34"/><rect x="160" y="147" width="18" height="16" rx="3" fill="#07866F" fill-opacity="0.22"/><rect x="187" y="147" width="18" height="16" rx="3" fill="#07866F" fill-opacity="0.14"/><rect x="214" y="147" width="18" height="16" rx="3" fill="#07866F" fill-opacity="0.08"/><rect x="241" y="147" width="18" height="16" rx="3" fill="#07866F" fill-opacity="0.34"/><rect x="268" y="147" width="18" height="16" rx="3" fill="#07866F" fill-opacity="0.22"/><rect x="295" y="147" width="18" height="16" rx="3" fill="#07866F" fill-opacity="0.14"/><rect x="322" y="147" width="18" height="16" rx="3" fill="#07866F" fill-opacity="0.08"/><rect x="349" y="147" width="18" height="16" rx="3" fill="#07866F" fill-opacity="0.34"/><rect x="376" y="147" width="18" height="16" rx="3" fill="#07866F" fill-opacity="0.22"/><rect x="403" y="147" width="18" height="16" rx="3" fill="#07866F" fill-opacity="0.14"/><rect x="430" y="147" width="18" height="16" rx="3" fill="#07866F" fill-opacity="0.08"/><rect x="457" y="147" width="18" height="16" rx="3" fill="#07866F" fill-opacity="0.34"/><rect x="484" y="147" width="18" height="16" rx="3" fill="#07866F" fill-opacity="0.22"/><rect x="511" y="147" width="18" height="16" rx="3" fill="#07866F" fill-opacity="0.14"/><rect x="538" y="147" width="18" height="16" rx="3" fill="#07866F" fill-opacity="0.08"/><rect x="565" y="147" width="18" height="16" rx="3" fill="#07866F" fill-opacity="0.34"/><rect x="52" y="171" width="18" height="16" rx="3" fill="#07866F" fill-opacity="0.34"/><rect x="79" y="171" width="18" height="16" rx="3" fill="#07866F" fill-opacity="0.22"/><rect x="106" y="171" width="18" height="16" rx="3" fill="#07866F" fill-opacity="0.14"/><rect x="133" y="171" width="18" height="16" rx="3" fill="#07866F" fill-opacity="0.08"/><rect x="160" y="171" width="18" height="16" rx="3" fill="#07866F" fill-opacity="0.34"/><rect x="187" y="171" width="18" height="16" rx="3" fill="#07866F" fill-opacity="0.22"/><rect x="214" y="171" width="18" height="16" rx="3" fill="#07866F" fill-opacity="0.14"/><rect x="241" y="171" width="18" height="16" rx="3" fill="#07866F" fill-opacity="0.08"/><rect x="268" y="171" width="18" height="16" rx="3" fill="#07866F" fill-opacity="0.34"/><rect x="295" y="171" width="18" height="16" rx="3" fill="#07866F" fill-opacity="0.22"/><rect x="322" y="171" width="18" height="16" rx="3" fill="#07866F" fill-opacity="0.14"/><rect x="349" y="171" width="18" height="16" rx="3" fill="#07866F" fill-opacity="0.08"/><rect x="376" y="171" width="18" height="16" rx="3" fill="#07866F" fill-opacity="0.34"/><rect x="403" y="171" width="18" height="16" rx="3" fill="#07866F" fill-opacity="0.22"/><rect x="430" y="171" width="18" height="16" rx="3" fill="#07866F" fill-opacity="0.14"/><rect x="457" y="171" width="18" height="16" rx="3" fill="#07866F" fill-opacity="0.08"/><rect x="484" y="171" width="18" height="16" rx="3" fill="#07866F" fill-opacity="0.34"/><rect x="511" y="171" width="18" height="16" rx="3" fill="#07866F" fill-opacity="0.22"/><rect x="538" y="171" width="18" height="16" rx="3" fill="#07866F" fill-opacity="0.14"/><rect x="565" y="171" width="18" height="16" rx="3" fill="#07866F" fill-opacity="0.08"/><rect x="52" y="195" width="18" height="16" rx="3" fill="#07866F" fill-opacity="0.08"/><rect x="79" y="195" width="18" height="16" rx="3" fill="#07866F" fill-opacity="0.34"/><rect x="106" y="195" width="18" height="16" rx="3" fill="#07866F" fill-opacity="0.22"/><rect x="133" y="195" width="18" height="16" rx="3" fill="#07866F" fill-opacity="0.14"/><rect x="160" y="195" width="18" height="16" rx="3" fill="#07866F" fill-opacity="0.08"/><rect x="187" y="195" width="18" height="16" rx="3" fill="#07866F" fill-opacity="0.34"/><rect x="214" y="195" width="18" height="16" rx="3" fill="#07866F" fill-opacity="0.22"/><rect x="241" y="195" width="18" height="16" rx="3" fill="#07866F" fill-opacity="0.14"/><rect x="268" y="195" width="18" height="16" rx="3" fill="#07866F" fill-opacity="0.08"/><rect x="295" y="195" width="18" height="16" rx="3" fill="#07866F" fill-opacity="0.34"/><rect x="322" y="195" width="18" height="16" rx="3" fill="#07866F" fill-opacity="0.22"/><rect x="349" y="195" width="18" height="16" rx="3" fill="#07866F" fill-opacity="0.14"/><rect x="376" y="195" width="18" height="16" rx="3" fill="#07866F" fill-opacity="0.08"/><rect x="403" y="195" width="18" height="16" rx="3" fill="#07866F" fill-opacity="0.34"/><rect x="430" y="195" width="18" height="16" rx="3" fill="#07866F" fill-opacity="0.22"/><rect x="457" y="195" width="18" height="16" rx="3" fill="#07866F" fill-opacity="0.14"/><rect x="484" y="195" width="18" height="16" rx="3" fill="#07866F" fill-opacity="0.08"/><rect x="511" y="195" width="18" height="16" rx="3" fill="#07866F" fill-opacity="0.34"/><rect x="538" y="195" width="18" height="16" rx="3" fill="#07866F" fill-opacity="0.22"/><rect x="565" y="195" width="18" height="16" rx="3" fill="#07866F" fill-opacity="0.14"/><rect x="52" y="219" width="18" height="16" rx="3" fill="#07866F" fill-opacity="0.14"/><rect x="79" y="219" width="18" height="16" rx="3" fill="#07866F" fill-opacity="0.08"/><rect x="106" y="219" width="18" height="16" rx="3" fill="#07866F" fill-opacity="0.34"/><rect x="133" y="219" width="18" height="16" rx="3" fill="#07866F" fill-opacity="0.22"/><rect x="160" y="219" width="18" height="16" rx="3" fill="#07866F" fill-opacity="0.14"/><rect x="187" y="219" width="18" height="16" rx="3" fill="#07866F" fill-opacity="0.08"/><rect x="214" y="219" width="18" height="16" rx="3" fill="#07866F" fill-opacity="0.34"/><rect x="241" y="219" width="18" height="16" rx="3" fill="#07866F" fill-opacity="0.22"/><rect x="268" y="219" width="18" height="16" rx="3" fill="#07866F" fill-opacity="0.14"/><rect x="295" y="219" width="18" height="16" rx="3" fill="#07866F" fill-opacity="0.08"/><rect x="322" y="219" width="18" height="16" rx="3" fill="#07866F" fill-opacity="0.34"/><rect x="349" y="219" width="18" height="16" rx="3" fill="#07866F" fill-opacity="0.22"/><rect x="376" y="219" width="18" height="16" rx="3" fill="#07866F" fill-opacity="0.14"/><rect x="403" y="219" width="18" height="16" rx="3" fill="#07866F" fill-opacity="0.08"/><rect x="430" y="219" width="18" height="16" rx="3" fill="#07866F" fill-opacity="0.34"/><rect x="457" y="219" width="18" height="16" rx="3" fill="#07866F" fill-opacity="0.22"/><rect x="484" y="219" width="18" height="16" rx="3" fill="#07866F" fill-opacity="0.14"/><rect x="511" y="219" width="18" height="16" rx="3" fill="#07866F" fill-opacity="0.08"/><rect x="538" y="219" width="18" height="16" rx="3" fill="#07866F" fill-opacity="0.34"/><rect x="565" y="219" width="18" height="16" rx="3" fill="#07866F" fill-opacity="0.22"/><rect x="52" y="243" width="18" height="16" rx="3" fill="#07866F" fill-opacity="0.22"/><rect x="79" y="243" width="18" height="16" rx="3" fill="#07866F" fill-opacity="0.14"/><rect x="106" y="243" width="18" height="16" rx="3" fill="#07866F" fill-opacity="0.08"/><rect x="133" y="243" width="18" height="16" rx="3" fill="#07866F" fill-opacity="0.34"/><rect x="160" y="243" width="18" height="16" rx="3" fill="#07866F" fill-opacity="0.22"/><rect x="187" y="243" width="18" height="16" rx="3" fill="#07866F" fill-opacity="0.14"/><rect x="214" y="243" width="18" height="16" rx="3" fill="#07866F" fill-opacity="0.08"/><rect x="241" y="243" width="18" height="16" rx="3" fill="#07866F" fill-opacity="0.34"/><rect x="268" y="243" width="18" height="16" rx="3" fill="#07866F" fill-opacity="0.22"/><rect x="295" y="243" width="18" height="16" rx="3" fill="#07866F" fill-opacity="0.14"/><rect x="322" y="243" width="18" height="16" rx="3" fill="#07866F" fill-opacity="0.08"/><rect x="349" y="243" width="18" height="16" rx="3" fill="#07866F" fill-opacity="0.34"/><rect x="376" y="243" width="18" height="16" rx="3" fill="#07866F" fill-opacity="0.22"/><rect x="403" y="243" width="18" height="16" rx="3" fill="#07866F" fill-opacity="0.14"/><rect x="430" y="243" width="18" height="16" rx="3" fill="#07866F" fill-opacity="0.08"/><rect x="457" y="243" width="18" height="16" rx="3" fill="#07866F" fill-opacity="0.34"/><rect x="484" y="243" width="18" height="16" rx="3" fill="#07866F" fill-opacity="0.22"/><rect x="511" y="243" width="18" height="16" rx="3" fill="#07866F" fill-opacity="0.14"/><rect x="538" y="243" width="18" height="16" rx="3" fill="#07866F" fill-opacity="0.08"/><rect x="565" y="243" width="18" height="16" rx="3" fill="#07866F" fill-opacity="0.34"/></g>
<text x="52" y="262" fill="#58667D" font-family="ui-monospace, SFMono-Regular, Menlo, Consolas, monospace" font-size="10">Contribution grid backdrop — decorative only, not live statistics.</text>
<g id="arcade-snake"><rect x="214" y="147" width="18" height="18" rx="5" fill="#087EA4" stroke="#F7F9FC" stroke-width="2" filter="url(#softGlow)"><animateTransform attributeName="transform" type="translate" values="0 0;0 8;0 0" dur="1.8s" begin="0s" repeatCount="indefinite"/></rect><rect x="239" y="147" width="18" height="18" rx="5" fill="#087EA4" stroke="#F7F9FC" stroke-width="2" filter="url(#softGlow)"><animateTransform attributeName="transform" type="translate" values="0 0;0 -8;0 0" dur="1.8s" begin="0.12s" repeatCount="indefinite"/></rect><rect x="264" y="147" width="18" height="18" rx="5" fill="#087EA4" stroke="#F7F9FC" stroke-width="2" filter="url(#softGlow)"><animateTransform attributeName="transform" type="translate" values="0 0;0 8;0 0" dur="1.8s" begin="0.24s" repeatCount="indefinite"/></rect><rect x="289" y="147" width="18" height="18" rx="5" fill="#087EA4" stroke="#F7F9FC" stroke-width="2" filter="url(#softGlow)"><animateTransform attributeName="transform" type="translate" values="0 0;0 -8;0 0" dur="1.8s" begin="0.36s" repeatCount="indefinite"/></rect><rect x="314" y="147" width="18" height="18" rx="5" fill="#087EA4" stroke="#F7F9FC" stroke-width="2" filter="url(#softGlow)"><animateTransform attributeName="transform" type="translate" values="0 0;0 8;0 0" dur="1.8s" begin="0.48s" repeatCount="indefinite"/></rect><rect x="339" y="147" width="18" height="18" rx="5" fill="#087EA4" stroke="#F7F9FC" stroke-width="2" filter="url(#softGlow)"><animateTransform attributeName="transform" type="translate" values="0 0;0 -8;0 0" dur="1.8s" begin="0.6s" repeatCount="indefinite"/></rect><rect x="364" y="147" width="18" height="18" rx="5" fill="#087EA4" stroke="#F7F9FC" stroke-width="2" filter="url(#softGlow)"><animateTransform attributeName="transform" type="translate" values="0 0;0 8;0 0" dur="1.8s" begin="0.72s" repeatCount="indefinite"/></rect><rect x="389" y="171" width="18" height="18" rx="5" fill="#087EA4" stroke="#F7F9FC" stroke-width="2" filter="url(#softGlow)"><animateTransform attributeName="transform" type="translate" values="0 0;0 -8;0 0" dur="1.8s" begin="0.84s" repeatCount="indefinite"/></rect><rect x="414" y="195" width="18" height="18" rx="5" fill="#087EA4" stroke="#F7F9FC" stroke-width="2" filter="url(#softGlow)"><animateTransform attributeName="transform" type="translate" values="0 0;0 8;0 0" dur="1.8s" begin="0.96s" repeatCount="indefinite"/></rect><rect x="439" y="195" width="18" height="18" rx="5" fill="#087EA4" stroke="#F7F9FC" stroke-width="2" filter="url(#softGlow)"><animateTransform attributeName="transform" type="translate" values="0 0;0 -8;0 0" dur="1.8s" begin="1.08s" repeatCount="indefinite"/></rect><rect x="464" y="195" width="18" height="18" rx="5" fill="#087EA4" stroke="#F7F9FC" stroke-width="2" filter="url(#softGlow)"><animateTransform attributeName="transform" type="translate" values="0 0;0 8;0 0" dur="1.8s" begin="1.2s" repeatCount="indefinite"/></rect><rect x="489" y="195" width="18" height="18" rx="5" fill="#087EA4" stroke="#F7F9FC" stroke-width="2" filter="url(#softGlow)"><animateTransform attributeName="transform" type="translate" values="0 0;0 -8;0 0" dur="1.8s" begin="1.3199999999999998s" repeatCount="indefinite"/></rect><rect x="514" y="171" width="18" height="18" rx="5" fill="#C76A20" stroke="#F7F9FC" stroke-width="2" filter="url(#softGlow)"><animateTransform attributeName="transform" type="translate" values="0 0;0 8;0 0" dur="1.8s" begin="1.44s" repeatCount="indefinite"/></rect></g>
<text x="305" y="135" fill="#087EA4" font-family="ui-monospace, SFMono-Regular, Menlo, Consolas, monospace" font-size="10" font-weight="700">NEON SNAKE · LOCAL VISUAL</text>
<g id="ai-robot" transform="translate(850 110)">
<g id="ai-robot-bob">
  <rect x="28" y="39" width="98" height="72" rx="22" fill="#F7F9FC" stroke="#6D42D8" stroke-width="3" filter="url(#softGlow)"/>
  <rect x="43" y="56" width="68" height="29" rx="12" fill="#6D42D8" fill-opacity=".16" stroke="#6D42D8"/>
  <circle cx="61" cy="70" r="5" fill="#087EA4"/><circle cx="93" cy="70" r="5" fill="#087EA4"/>
  <path d="M68 93Q77 100 86 93M77 39V22M69 22H85" fill="none" stroke="#07866F" stroke-width="3" stroke-linecap="round"/>
  <rect x="48" y="111" width="17" height="26" rx="8" fill="#6D42D8"/><rect x="89" y="111" width="17" height="26" rx="8" fill="#6D42D8"/>
<animateTransform attributeName="transform" type="translate" values="0 0;0 -7;0 0" dur="2.2s" repeatCount="indefinite"/>
</g>
</g>
<text x="899" y="272" text-anchor="middle" fill="#111827" font-family="ui-sans-serif, system-ui, sans-serif" font-size="11" font-weight="700">Local preview/fallback</text>
<text x="899" y="291" text-anchor="middle" fill="#58667D" font-family="ui-sans-serif, system-ui, sans-serif" font-size="10">The daily generated contribution snake replaces it after the first successful workflow run.</text>
<!-- hero-animated:end -->
</g>
<g class="hero-static">
<!-- hero-static:start -->
<rect width="1180" height="330" rx="28" fill="#F7F9FC"/>
<circle cx="120" cy="-20" r="230" fill="url(#accent)" opacity=".08"/>
<rect x="14" y="14" width="1152" height="302" rx="22" fill="#FFFFFF" stroke="#D7DFEC"/>
<rect x="14" y="14" width="1152" height="58" rx="22" fill="#F7F9FC"/>
<path d="M38 72H1142" stroke="#D7DFEC"/>
<circle cx="43" cy="43" r="5" fill="#C76A20"/><circle cx="61" cy="43" r="5" fill="#6D42D8"/><circle cx="79" cy="43" r="5" fill="#07866F"/>
<text x="104" y="47" fill="#111827" font-family="ui-sans-serif, system-ui, sans-serif" font-size="18" font-weight="800">Contribution Arcade / Le serpent de Laouën</text>
<rect x="910" y="29" width="215" height="28" rx="9" fill="#07866F" fill-opacity=".08" stroke="#07866F" stroke-opacity=".55"/>
<circle cx="926" cy="43" r="3" fill="#07866F" filter="url(#softGlow)"/>
<text x="937" y="47" fill="#07866F" font-family="ui-monospace, SFMono-Regular, Menlo, Consolas, monospace" font-size="10" font-weight="700">FALLBACK READY</text>
<g id="contribution-grid-static"><rect x="52" y="99" width="18" height="16" rx="3" fill="#07866F" fill-opacity="0.08"/><rect x="79" y="99" width="18" height="16" rx="3" fill="#07866F" fill-opacity="0.34"/><rect x="106" y="99" width="18" height="16" rx="3" fill="#07866F" fill-opacity="0.22"/><rect x="133" y="99" width="18" height="16" rx="3" fill="#07866F" fill-opacity="0.14"/><rect x="160" y="99" width="18" height="16" rx="3" fill="#07866F" fill-opacity="0.08"/><rect x="187" y="99" width="18" height="16" rx="3" fill="#07866F" fill-opacity="0.34"/><rect x="214" y="99" width="18" height="16" rx="3" fill="#07866F" fill-opacity="0.22"/><rect x="241" y="99" width="18" height="16" rx="3" fill="#07866F" fill-opacity="0.14"/><rect x="268" y="99" width="18" height="16" rx="3" fill="#07866F" fill-opacity="0.08"/><rect x="295" y="99" width="18" height="16" rx="3" fill="#07866F" fill-opacity="0.34"/><rect x="322" y="99" width="18" height="16" rx="3" fill="#07866F" fill-opacity="0.22"/><rect x="349" y="99" width="18" height="16" rx="3" fill="#07866F" fill-opacity="0.14"/><rect x="376" y="99" width="18" height="16" rx="3" fill="#07866F" fill-opacity="0.08"/><rect x="403" y="99" width="18" height="16" rx="3" fill="#07866F" fill-opacity="0.34"/><rect x="430" y="99" width="18" height="16" rx="3" fill="#07866F" fill-opacity="0.22"/><rect x="457" y="99" width="18" height="16" rx="3" fill="#07866F" fill-opacity="0.14"/><rect x="484" y="99" width="18" height="16" rx="3" fill="#07866F" fill-opacity="0.08"/><rect x="511" y="99" width="18" height="16" rx="3" fill="#07866F" fill-opacity="0.34"/><rect x="538" y="99" width="18" height="16" rx="3" fill="#07866F" fill-opacity="0.22"/><rect x="565" y="99" width="18" height="16" rx="3" fill="#07866F" fill-opacity="0.14"/><rect x="52" y="123" width="18" height="16" rx="3" fill="#07866F" fill-opacity="0.14"/><rect x="79" y="123" width="18" height="16" rx="3" fill="#07866F" fill-opacity="0.08"/><rect x="106" y="123" width="18" height="16" rx="3" fill="#07866F" fill-opacity="0.34"/><rect x="133" y="123" width="18" height="16" rx="3" fill="#07866F" fill-opacity="0.22"/><rect x="160" y="123" width="18" height="16" rx="3" fill="#07866F" fill-opacity="0.14"/><rect x="187" y="123" width="18" height="16" rx="3" fill="#07866F" fill-opacity="0.08"/><rect x="214" y="123" width="18" height="16" rx="3" fill="#07866F" fill-opacity="0.34"/><rect x="241" y="123" width="18" height="16" rx="3" fill="#07866F" fill-opacity="0.22"/><rect x="268" y="123" width="18" height="16" rx="3" fill="#07866F" fill-opacity="0.14"/><rect x="295" y="123" width="18" height="16" rx="3" fill="#07866F" fill-opacity="0.08"/><rect x="322" y="123" width="18" height="16" rx="3" fill="#07866F" fill-opacity="0.34"/><rect x="349" y="123" width="18" height="16" rx="3" fill="#07866F" fill-opacity="0.22"/><rect x="376" y="123" width="18" height="16" rx="3" fill="#07866F" fill-opacity="0.14"/><rect x="403" y="123" width="18" height="16" rx="3" fill="#07866F" fill-opacity="0.08"/><rect x="430" y="123" width="18" height="16" rx="3" fill="#07866F" fill-opacity="0.34"/><rect x="457" y="123" width="18" height="16" rx="3" fill="#07866F" fill-opacity="0.22"/><rect x="484" y="123" width="18" height="16" rx="3" fill="#07866F" fill-opacity="0.14"/><rect x="511" y="123" width="18" height="16" rx="3" fill="#07866F" fill-opacity="0.08"/><rect x="538" y="123" width="18" height="16" rx="3" fill="#07866F" fill-opacity="0.34"/><rect x="565" y="123" width="18" height="16" rx="3" fill="#07866F" fill-opacity="0.22"/><rect x="52" y="147" width="18" height="16" rx="3" fill="#07866F" fill-opacity="0.22"/><rect x="79" y="147" width="18" height="16" rx="3" fill="#07866F" fill-opacity="0.14"/><rect x="106" y="147" width="18" height="16" rx="3" fill="#07866F" fill-opacity="0.08"/><rect x="133" y="147" width="18" height="16" rx="3" fill="#07866F" fill-opacity="0.34"/><rect x="160" y="147" width="18" height="16" rx="3" fill="#07866F" fill-opacity="0.22"/><rect x="187" y="147" width="18" height="16" rx="3" fill="#07866F" fill-opacity="0.14"/><rect x="214" y="147" width="18" height="16" rx="3" fill="#07866F" fill-opacity="0.08"/><rect x="241" y="147" width="18" height="16" rx="3" fill="#07866F" fill-opacity="0.34"/><rect x="268" y="147" width="18" height="16" rx="3" fill="#07866F" fill-opacity="0.22"/><rect x="295" y="147" width="18" height="16" rx="3" fill="#07866F" fill-opacity="0.14"/><rect x="322" y="147" width="18" height="16" rx="3" fill="#07866F" fill-opacity="0.08"/><rect x="349" y="147" width="18" height="16" rx="3" fill="#07866F" fill-opacity="0.34"/><rect x="376" y="147" width="18" height="16" rx="3" fill="#07866F" fill-opacity="0.22"/><rect x="403" y="147" width="18" height="16" rx="3" fill="#07866F" fill-opacity="0.14"/><rect x="430" y="147" width="18" height="16" rx="3" fill="#07866F" fill-opacity="0.08"/><rect x="457" y="147" width="18" height="16" rx="3" fill="#07866F" fill-opacity="0.34"/><rect x="484" y="147" width="18" height="16" rx="3" fill="#07866F" fill-opacity="0.22"/><rect x="511" y="147" width="18" height="16" rx="3" fill="#07866F" fill-opacity="0.14"/><rect x="538" y="147" width="18" height="16" rx="3" fill="#07866F" fill-opacity="0.08"/><rect x="565" y="147" width="18" height="16" rx="3" fill="#07866F" fill-opacity="0.34"/><rect x="52" y="171" width="18" height="16" rx="3" fill="#07866F" fill-opacity="0.34"/><rect x="79" y="171" width="18" height="16" rx="3" fill="#07866F" fill-opacity="0.22"/><rect x="106" y="171" width="18" height="16" rx="3" fill="#07866F" fill-opacity="0.14"/><rect x="133" y="171" width="18" height="16" rx="3" fill="#07866F" fill-opacity="0.08"/><rect x="160" y="171" width="18" height="16" rx="3" fill="#07866F" fill-opacity="0.34"/><rect x="187" y="171" width="18" height="16" rx="3" fill="#07866F" fill-opacity="0.22"/><rect x="214" y="171" width="18" height="16" rx="3" fill="#07866F" fill-opacity="0.14"/><rect x="241" y="171" width="18" height="16" rx="3" fill="#07866F" fill-opacity="0.08"/><rect x="268" y="171" width="18" height="16" rx="3" fill="#07866F" fill-opacity="0.34"/><rect x="295" y="171" width="18" height="16" rx="3" fill="#07866F" fill-opacity="0.22"/><rect x="322" y="171" width="18" height="16" rx="3" fill="#07866F" fill-opacity="0.14"/><rect x="349" y="171" width="18" height="16" rx="3" fill="#07866F" fill-opacity="0.08"/><rect x="376" y="171" width="18" height="16" rx="3" fill="#07866F" fill-opacity="0.34"/><rect x="403" y="171" width="18" height="16" rx="3" fill="#07866F" fill-opacity="0.22"/><rect x="430" y="171" width="18" height="16" rx="3" fill="#07866F" fill-opacity="0.14"/><rect x="457" y="171" width="18" height="16" rx="3" fill="#07866F" fill-opacity="0.08"/><rect x="484" y="171" width="18" height="16" rx="3" fill="#07866F" fill-opacity="0.34"/><rect x="511" y="171" width="18" height="16" rx="3" fill="#07866F" fill-opacity="0.22"/><rect x="538" y="171" width="18" height="16" rx="3" fill="#07866F" fill-opacity="0.14"/><rect x="565" y="171" width="18" height="16" rx="3" fill="#07866F" fill-opacity="0.08"/><rect x="52" y="195" width="18" height="16" rx="3" fill="#07866F" fill-opacity="0.08"/><rect x="79" y="195" width="18" height="16" rx="3" fill="#07866F" fill-opacity="0.34"/><rect x="106" y="195" width="18" height="16" rx="3" fill="#07866F" fill-opacity="0.22"/><rect x="133" y="195" width="18" height="16" rx="3" fill="#07866F" fill-opacity="0.14"/><rect x="160" y="195" width="18" height="16" rx="3" fill="#07866F" fill-opacity="0.08"/><rect x="187" y="195" width="18" height="16" rx="3" fill="#07866F" fill-opacity="0.34"/><rect x="214" y="195" width="18" height="16" rx="3" fill="#07866F" fill-opacity="0.22"/><rect x="241" y="195" width="18" height="16" rx="3" fill="#07866F" fill-opacity="0.14"/><rect x="268" y="195" width="18" height="16" rx="3" fill="#07866F" fill-opacity="0.08"/><rect x="295" y="195" width="18" height="16" rx="3" fill="#07866F" fill-opacity="0.34"/><rect x="322" y="195" width="18" height="16" rx="3" fill="#07866F" fill-opacity="0.22"/><rect x="349" y="195" width="18" height="16" rx="3" fill="#07866F" fill-opacity="0.14"/><rect x="376" y="195" width="18" height="16" rx="3" fill="#07866F" fill-opacity="0.08"/><rect x="403" y="195" width="18" height="16" rx="3" fill="#07866F" fill-opacity="0.34"/><rect x="430" y="195" width="18" height="16" rx="3" fill="#07866F" fill-opacity="0.22"/><rect x="457" y="195" width="18" height="16" rx="3" fill="#07866F" fill-opacity="0.14"/><rect x="484" y="195" width="18" height="16" rx="3" fill="#07866F" fill-opacity="0.08"/><rect x="511" y="195" width="18" height="16" rx="3" fill="#07866F" fill-opacity="0.34"/><rect x="538" y="195" width="18" height="16" rx="3" fill="#07866F" fill-opacity="0.22"/><rect x="565" y="195" width="18" height="16" rx="3" fill="#07866F" fill-opacity="0.14"/><rect x="52" y="219" width="18" height="16" rx="3" fill="#07866F" fill-opacity="0.14"/><rect x="79" y="219" width="18" height="16" rx="3" fill="#07866F" fill-opacity="0.08"/><rect x="106" y="219" width="18" height="16" rx="3" fill="#07866F" fill-opacity="0.34"/><rect x="133" y="219" width="18" height="16" rx="3" fill="#07866F" fill-opacity="0.22"/><rect x="160" y="219" width="18" height="16" rx="3" fill="#07866F" fill-opacity="0.14"/><rect x="187" y="219" width="18" height="16" rx="3" fill="#07866F" fill-opacity="0.08"/><rect x="214" y="219" width="18" height="16" rx="3" fill="#07866F" fill-opacity="0.34"/><rect x="241" y="219" width="18" height="16" rx="3" fill="#07866F" fill-opacity="0.22"/><rect x="268" y="219" width="18" height="16" rx="3" fill="#07866F" fill-opacity="0.14"/><rect x="295" y="219" width="18" height="16" rx="3" fill="#07866F" fill-opacity="0.08"/><rect x="322" y="219" width="18" height="16" rx="3" fill="#07866F" fill-opacity="0.34"/><rect x="349" y="219" width="18" height="16" rx="3" fill="#07866F" fill-opacity="0.22"/><rect x="376" y="219" width="18" height="16" rx="3" fill="#07866F" fill-opacity="0.14"/><rect x="403" y="219" width="18" height="16" rx="3" fill="#07866F" fill-opacity="0.08"/><rect x="430" y="219" width="18" height="16" rx="3" fill="#07866F" fill-opacity="0.34"/><rect x="457" y="219" width="18" height="16" rx="3" fill="#07866F" fill-opacity="0.22"/><rect x="484" y="219" width="18" height="16" rx="3" fill="#07866F" fill-opacity="0.14"/><rect x="511" y="219" width="18" height="16" rx="3" fill="#07866F" fill-opacity="0.08"/><rect x="538" y="219" width="18" height="16" rx="3" fill="#07866F" fill-opacity="0.34"/><rect x="565" y="219" width="18" height="16" rx="3" fill="#07866F" fill-opacity="0.22"/><rect x="52" y="243" width="18" height="16" rx="3" fill="#07866F" fill-opacity="0.22"/><rect x="79" y="243" width="18" height="16" rx="3" fill="#07866F" fill-opacity="0.14"/><rect x="106" y="243" width="18" height="16" rx="3" fill="#07866F" fill-opacity="0.08"/><rect x="133" y="243" width="18" height="16" rx="3" fill="#07866F" fill-opacity="0.34"/><rect x="160" y="243" width="18" height="16" rx="3" fill="#07866F" fill-opacity="0.22"/><rect x="187" y="243" width="18" height="16" rx="3" fill="#07866F" fill-opacity="0.14"/><rect x="214" y="243" width="18" height="16" rx="3" fill="#07866F" fill-opacity="0.08"/><rect x="241" y="243" width="18" height="16" rx="3" fill="#07866F" fill-opacity="0.34"/><rect x="268" y="243" width="18" height="16" rx="3" fill="#07866F" fill-opacity="0.22"/><rect x="295" y="243" width="18" height="16" rx="3" fill="#07866F" fill-opacity="0.14"/><rect x="322" y="243" width="18" height="16" rx="3" fill="#07866F" fill-opacity="0.08"/><rect x="349" y="243" width="18" height="16" rx="3" fill="#07866F" fill-opacity="0.34"/><rect x="376" y="243" width="18" height="16" rx="3" fill="#07866F" fill-opacity="0.22"/><rect x="403" y="243" width="18" height="16" rx="3" fill="#07866F" fill-opacity="0.14"/><rect x="430" y="243" width="18" height="16" rx="3" fill="#07866F" fill-opacity="0.08"/><rect x="457" y="243" width="18" height="16" rx="3" fill="#07866F" fill-opacity="0.34"/><rect x="484" y="243" width="18" height="16" rx="3" fill="#07866F" fill-opacity="0.22"/><rect x="511" y="243" width="18" height="16" rx="3" fill="#07866F" fill-opacity="0.14"/><rect x="538" y="243" width="18" height="16" rx="3" fill="#07866F" fill-opacity="0.08"/><rect x="565" y="243" width="18" height="16" rx="3" fill="#07866F" fill-opacity="0.34"/></g>
<text x="52" y="262" fill="#58667D" font-family="ui-monospace, SFMono-Regular, Menlo, Consolas, monospace" font-size="10">Contribution grid backdrop — decorative only, not live statistics.</text>
<g id="arcade-snake-static"><rect x="214" y="147" width="18" height="18" rx="5" fill="#087EA4" stroke="#F7F9FC" stroke-width="2" filter="url(#softGlow)"></rect><rect x="239" y="147" width="18" height="18" rx="5" fill="#087EA4" stroke="#F7F9FC" stroke-width="2" filter="url(#softGlow)"></rect><rect x="264" y="147" width="18" height="18" rx="5" fill="#087EA4" stroke="#F7F9FC" stroke-width="2" filter="url(#softGlow)"></rect><rect x="289" y="147" width="18" height="18" rx="5" fill="#087EA4" stroke="#F7F9FC" stroke-width="2" filter="url(#softGlow)"></rect><rect x="314" y="147" width="18" height="18" rx="5" fill="#087EA4" stroke="#F7F9FC" stroke-width="2" filter="url(#softGlow)"></rect><rect x="339" y="147" width="18" height="18" rx="5" fill="#087EA4" stroke="#F7F9FC" stroke-width="2" filter="url(#softGlow)"></rect><rect x="364" y="147" width="18" height="18" rx="5" fill="#087EA4" stroke="#F7F9FC" stroke-width="2" filter="url(#softGlow)"></rect><rect x="389" y="171" width="18" height="18" rx="5" fill="#087EA4" stroke="#F7F9FC" stroke-width="2" filter="url(#softGlow)"></rect><rect x="414" y="195" width="18" height="18" rx="5" fill="#087EA4" stroke="#F7F9FC" stroke-width="2" filter="url(#softGlow)"></rect><rect x="439" y="195" width="18" height="18" rx="5" fill="#087EA4" stroke="#F7F9FC" stroke-width="2" filter="url(#softGlow)"></rect><rect x="464" y="195" width="18" height="18" rx="5" fill="#087EA4" stroke="#F7F9FC" stroke-width="2" filter="url(#softGlow)"></rect><rect x="489" y="195" width="18" height="18" rx="5" fill="#087EA4" stroke="#F7F9FC" stroke-width="2" filter="url(#softGlow)"></rect><rect x="514" y="171" width="18" height="18" rx="5" fill="#C76A20" stroke="#F7F9FC" stroke-width="2" filter="url(#softGlow)"></rect></g>
<text x="305" y="135" fill="#087EA4" font-family="ui-monospace, SFMono-Regular, Menlo, Consolas, monospace" font-size="10" font-weight="700">NEON SNAKE · LOCAL VISUAL</text>
<g id="ai-robot-static" transform="translate(850 110)">
<g id="ai-robot-bob-static">
  <rect x="28" y="39" width="98" height="72" rx="22" fill="#F7F9FC" stroke="#6D42D8" stroke-width="3" filter="url(#softGlow)"/>
  <rect x="43" y="56" width="68" height="29" rx="12" fill="#6D42D8" fill-opacity=".16" stroke="#6D42D8"/>
  <circle cx="61" cy="70" r="5" fill="#087EA4"/><circle cx="93" cy="70" r="5" fill="#087EA4"/>
  <path d="M68 93Q77 100 86 93M77 39V22M69 22H85" fill="none" stroke="#07866F" stroke-width="3" stroke-linecap="round"/>
  <rect x="48" y="111" width="17" height="26" rx="8" fill="#6D42D8"/><rect x="89" y="111" width="17" height="26" rx="8" fill="#6D42D8"/>

</g>
</g>
<text x="899" y="272" text-anchor="middle" fill="#111827" font-family="ui-sans-serif, system-ui, sans-serif" font-size="11" font-weight="700">Local preview/fallback</text>
<text x="899" y="291" text-anchor="middle" fill="#58667D" font-family="ui-sans-serif, system-ui, sans-serif" font-size="10">The daily generated contribution snake replaces it after the first successful workflow run.</text>
<!-- hero-static:end -->
</g>
</svg>
